<?xml version="1.0" encoding="utf-8"?>
<!-- Generator: Adobe Illustrator 23.0.6, SVG Export Plug-In . SVG Version: 6.00 Build 0)  -->
<svg version="1.1" id="Layer_1" xmlns="http://www.w3.org/2000/svg" xmlns:xlink="http://www.w3.org/1999/xlink" x="0px" y="0px"
	 viewBox="0 0 22 22" style="enable-background:new 0 0 22 22;" xml:space="preserve">
<style type="text/css">
	.st0{fill:#FFFFFF;}
</style>
<path class="st0" d="M20,9.2c0,0.6-0.1,1.2-0.2,1.8c-0.3,1.3-0.8,2.6-1.6,3.6c-0.5,0.7-1.1,1.3-1.8,1.8c-1.1,0.8-2.3,1.4-3.6,1.6
	c-0.6,0.1-1.2,0.2-1.8,0.2H7.4c-1,0-1.8-0.8-1.8-1.8v0c0-1,0.8-1.8,1.8-1.8H11c0.6,0,1.2-0.1,1.8-0.3c1.5-0.5,2.8-1.8,3.3-3.3
	c0.2-0.6,0.3-1.2,0.3-1.8c0-0.6-0.1-1.2-0.3-1.8c-0.5-1.5-1.8-2.8-3.3-3.3c-0.6-0.2-1.2-0.3-1.8-0.3c-0.6,0-1.2,0.1-1.8,0.3
	C7.7,4.6,6.4,5.8,5.9,7.4C5.7,7.9,5.6,8.6,5.6,9.2v3.6c0,0.5-0.2,1-0.6,1.3c-0.6,0.6-1,1.4-1,2.2v0.2c0,0.8,0.4,1.6,1,2.2
	c0.4,0.3,0.6,0.8,0.6,1.3c0,1-0.9,1.9-1.9,1.8c-0.9-0.1-1.6-0.7-1.7-1.6c-0.1-0.6,0.2-1.1,0.6-1.5c0.6-0.6,1-1.4,1-2.2v-0.2
	c0-0.8-0.4-1.6-1-2.2C2.2,13.8,2,13.3,2,12.8V9.2C2,8.6,2,8,2.1,7.4C2.4,6,3,4.8,3.8,3.8C4.3,3.1,4.9,2.5,5.6,2
	c1.1-0.8,2.3-1.4,3.6-1.6c0.6-0.1,1.2-0.2,1.8-0.2c0.6,0,1.2,0.1,1.8,0.2c1.3,0.3,2.6,0.8,3.6,1.6c0.7,0.5,1.3,1.1,1.8,1.8
	C19,4.8,19.6,6,19.9,7.4C20,8,20,8.6,20,9.2z M12.8,9.2c0-1-0.8-1.8-1.8-1.8c-1,0-1.8,0.8-1.8,1.8S10,11,11,11
	C12,11,12.8,10.2,12.8,9.2z"/>
</svg>
